<?xml version="1.0" standalone="no"?>
<!DOCTYPE svg PUBLIC "-//W3C//DTD SVG 20010904//EN"
 "http://www.w3.org/TR/2001/REC-SVG-20010904/DTD/svg10.dtd">
<svg version="1.0" xmlns="http://www.w3.org/2000/svg"
 width="2580.000000pt" height="2580.000000pt" viewBox="0 0 2580.000000 2580.000000"
 preserveAspectRatio="xMidYMid meet">
<metadata>
Created by potrace 1.14, written by Peter Selinger 2001-2017
</metadata>
<g transform="translate(0.000000,2580.000000) scale(0.100000,-0.100000)"
fill="#000000" stroke="none">
<path d="M2419 25696 c-2 -2 -31 -6 -64 -10 -127 -14 -254 -33 -300 -46 -16
-5 -91 -25 -165 -46 -74 -20 -139 -40 -145 -44 -5 -4 -28 -13 -50 -20 -38 -12
-319 -147 -359 -173 -114 -73 -232 -151 -236 -156 -3 -4 -25 -22 -50 -41 -82
-63 -104 -84 -215 -195 -195 -194 -323 -368 -451 -610 -139 -264 -231 -567
-268 -880 -12 -103 -14 -1615 -12 -10620 2 -9854 3 -10506 19 -10602 17 -106
55 -281 62 -293 2 -3 6 -18 9 -32 6 -36 73 -234 98 -293 71 -163 224 -428 315
-543 115 -148 229 -269 363 -388 96 -84 370 -274 396 -274 7 0 14 -3 16 -8 5
-12 131 -75 253 -127 121 -52 216 -83 345 -115 47 -11 101 -25 120 -29 19 -5
60 -12 90 -16 30 -4 64 -9 75 -11 11 -2 49 -7 85 -12 88 -10 21004 -9 21105 1
44 4 87 10 95 12 8 2 33 6 55 10 72 10 99 16 185 36 92 22 297 88 357 114 95
42 288 139 291 147 2 4 9 8 15 8 13 0 249 157 290 194 16 13 47 39 70 57 81
64 337 329 337 350 0 4 6 12 14 16 8 4 57 72 109 149 200 300 343 659 393 988
3 21 7 48 10 60 2 11 7 62 11 111 11 122 10 21002 0 21087 -9 75 -10 82 -28
188 -15 89 -12 73 -28 140 -64 269 -185 550 -338 785 -36 55 -68 102 -72 105
-4 3 -23 28 -43 56 -82 116 -302 339 -423 429 -22 17 -44 35 -50 41 -14 16
-212 145 -265 173 -25 13 -52 30 -60 37 -8 7 -18 13 -22 14 -4 0 -55 23 -113
50 -58 28 -109 50 -114 50 -5 0 -30 10 -56 21 -96 43 -345 107 -500 129 -44 6
-91 14 -105 18 -26 7 -21043 15 -21051 8z"/>
</g>
</svg>
